<svg xmlns="http://www.w3.org/2000/svg" width="192" height="192" viewBox="0 0 192 192"><rect width="192" height="192" rx="32" fill="#effaf5"/><circle cx="96" cy="96" r="68" fill="#d2f5e9"/><svg x="46" y="46" xmlns="http://www.w3.org/2000/svg" width="100" height="100" viewBox="0 0 24 24" fill="none" stroke="#087d69" stroke-width="1.7" stroke-linecap="round" stroke-linejoin="round" class="lucide lucide-coffee" aria-hidden="true"><path d="M10 2v2"></path><path d="M14 2v2"></path><path d="M16 8a1 1 0 0 1 1 1v8a4 4 0 0 1-4 4H7a4 4 0 0 1-4-4V9a1 1 0 0 1 1-1h14a4 4 0 1 1 0 8h-1"></path><path d="M6 2v2"></path></svg></svg>