<svg xmlns="http://www.w3.org/2000/svg" width="192" height="192" viewBox="0 0 192 192"><rect width="192" height="192" rx="32" fill="#effaf5"/><circle cx="96" cy="96" r="68" fill="#d2f5e9"/><svg x="46" y="46" xmlns="http://www.w3.org/2000/svg" width="100" height="100" viewBox="0 0 24 24" fill="none" stroke="#087d69" stroke-width="1.7" stroke-linecap="round" stroke-linejoin="round" class="lucide lucide-apple" aria-hidden="true"><path d="M12 6.528V3a1 1 0 0 1 1-1h0"></path><path d="M18.237 21A15 15 0 0 0 22 11a6 6 0 0 0-10-4.472A6 6 0 0 0 2 11a15.1 15.1 0 0 0 3.763 10 3 3 0 0 0 3.648.648 5.5 5.5 0 0 1 5.178 0A3 3 0 0 0 18.237 21"></path></svg></svg>